<?xml version="1.0" standalone="no"?>
<!DOCTYPE svg PUBLIC "-//W3C//DTD SVG 20010904//EN"
 "http://www.w3.org/TR/2001/REC-SVG-20010904/DTD/svg10.dtd">
<svg version="1.0" xmlns="http://www.w3.org/2000/svg"
 width="499.000000pt" height="499.000000pt" viewBox="0 0 499.000000 499.000000"
 preserveAspectRatio="xMidYMid meet">
<metadata>
Created by potrace 1.14, written by Peter Selinger 2001-2017
</metadata>
<g transform="translate(0.000000,499.000000) scale(0.100000,-0.100000)"
fill="#000000" stroke="none">
<path d="M2878 4964 c-2 -1 -91 -5 -198 -8 -329 -11 -388 -17 -514 -52 -86
-24 -252 -84 -288 -104 -10 -6 -23 -10 -29 -10 -33 0 -165 -80 -235 -141 -43
-39 -108 -91 -144 -116 -73 -52 -147 -112 -200 -160 -19 -18 -38 -33 -42 -33
-5 0 -8 -4 -8 -8 0 -4 -27 -37 -60 -72 -58 -63 -81 -94 -183 -251 -26 -41 -72
-105 -102 -144 -30 -38 -62 -86 -71 -105 -9 -19 -36 -64 -59 -100 -47 -72 -75
-124 -75 -139 0 -6 -23 -58 -50 -116 -53 -112 -84 -210 -97 -303 -11 -85 -10
-335 2 -339 6 -2 10 43 11 120 0 137 7 209 24 282 7 28 13 59 14 70 1 11 4 25
7 30 4 6 12 28 19 50 7 22 22 52 32 66 11 14 21 32 22 40 2 8 8 25 13 39 6 14
19 45 29 70 10 25 39 79 66 120 27 41 48 79 48 84 -1 5 3 12 8 15 5 3 16 20
25 37 9 16 44 66 80 110 35 43 90 121 122 173 92 149 194 262 335 371 25 19
47 37 50 40 3 3 30 22 60 43 30 20 71 52 90 70 111 101 172 140 286 183 38 14
74 29 79 33 9 7 52 20 72 22 5 0 13 5 19 10 11 9 123 48 157 55 10 2 27 6 37
9 46 14 162 23 410 30 377 11 500 12 552 4 29 -4 71 -10 93 -13 22 -2 90 -13
150 -25 61 -11 124 -22 140 -25 175 -28 274 -66 457 -178 99 -60 131 -87 218
-188 64 -74 162 -170 173 -170 4 0 7 -7 7 -15 0 -8 5 -15 10 -15 12 0 94 -171
122 -254 11 -33 37 -86 59 -120 21 -33 39 -62 40 -65 1 -9 7 -31 34 -126 36
-127 35 -121 50 -215 7 -47 22 -125 34 -175 30 -135 32 -145 41 -340 5 -99 13
-198 17 -220 5 -22 8 -46 7 -52 -1 -7 -2 -17 -3 -23 0 -5 -11 -20 -22 -31 -20
-20 -29 -45 -45 -118 -3 -13 -9 -31 -14 -41 -12 -22 -44 -156 -65 -270 -10
-52 -20 -99 -23 -105 -3 -5 -7 -20 -8 -33 -6 -52 -96 -322 -117 -349 -5 -7 -6
-13 -1 -13 5 0 5 -4 -1 -8 -11 -8 -52 -77 -45 -77 11 0 -59 -182 -102 -262
-15 -29 -24 -53 -20 -53 4 0 2 -4 -4 -8 -6 -4 -21 -26 -32 -48 -12 -23 -76
-97 -144 -165 -68 -69 -141 -145 -163 -170 -22 -25 -49 -52 -60 -60 -11 -8
-51 -59 -88 -114 -36 -55 -77 -110 -89 -122 -40 -39 -65 -61 -81 -69 -25 -15
-89 -67 -141 -117 -39 -36 -102 -73 -261 -151 -115 -57 -232 -109 -259 -115
-27 -7 -69 -23 -93 -36 -23 -14 -43 -23 -43 -21 0 2 -26 -3 -57 -11 -32 -8
-65 -16 -73 -18 -8 -2 -28 -9 -45 -16 -16 -7 -34 -13 -40 -13 -5 -1 -35 -9
-65 -18 -30 -9 -71 -19 -90 -23 -19 -3 -39 -7 -45 -9 -46 -13 -86 -18 -176
-22 -165 -8 -452 -10 -479 -3 -14 4 -59 14 -101 23 -42 9 -83 18 -90 20 -8 3
-31 7 -51 10 -30 5 -110 40 -218 95 -8 4 -25 30 -39 56 -20 41 -24 64 -24 144
0 53 1 110 3 126 5 60 0 76 -30 93 -16 9 -30 24 -30 32 0 22 -31 69 -76 115
-26 27 -37 47 -35 63 1 13 -1 28 -6 35 -5 7 -8 18 -7 25 1 6 2 17 3 22 0 6 8
10 17 10 15 0 58 39 96 88 24 30 36 89 26 137 -4 22 -10 58 -14 80 -11 76 -26
119 -59 170 -34 54 -109 110 -159 119 -38 7 -113 -11 -148 -36 -14 -10 -32
-18 -39 -18 -22 0 -99 -50 -99 -65 0 -22 -46 -19 -97 6 -44 21 -90 77 -110
134 -12 34 -32 152 -35 205 -3 78 68 170 131 170 46 0 177 51 208 82 44 42 48
68 20 135 -14 32 -27 70 -30 84 -4 14 -13 42 -22 62 -8 20 -14 38 -13 39 1 2
-11 22 -25 45 -15 24 -27 47 -27 52 0 14 -64 64 -87 68 -36 6 -169 -19 -212
-40 -53 -24 -228 -187 -254 -234 -10 -18 -31 -70 -48 -116 -28 -73 -32 -95
-33 -197 -1 -103 11 -296 19 -310 1 -3 6 -26 9 -52 9 -65 28 -115 87 -225 76
-144 96 -174 152 -225 53 -50 261 -161 333 -179 83 -20 282 -30 345 -16 35 7
37 6 48 -24 14 -40 15 -34 -15 -62 -33 -31 -60 -25 -86 19 -29 49 -34 42 -6
-9 22 -39 27 -42 62 -40 21 2 44 7 51 13 26 22 119 -99 108 -140 -3 -10 -12
-17 -21 -15 -27 4 -92 -33 -92 -53 0 -41 13 -61 39 -64 27 -4 90 20 92 34 2
14 5 22 13 47 8 24 9 24 22 6 15 -20 19 -82 6 -101 -4 -7 -20 -12 -36 -12 -28
0 -46 -15 -46 -40 0 -10 12 -12 42 -10 l42 3 -3 -48 c-3 -48 20 -134 46 -174
18 -28 197 -119 261 -134 26 -6 56 -13 67 -16 11 -2 29 -6 40 -9 11 -2 43 -9
70 -16 87 -22 563 -16 673 8 34 7 76 16 94 19 17 3 34 8 38 10 3 2 17 6 31 9
13 2 83 23 154 46 72 23 135 43 140 44 6 1 30 12 55 23 25 11 72 28 104 38 52
14 167 67 391 176 33 16 79 47 102 70 23 22 80 69 125 104 113 88 127 102 173
165 21 30 42 57 45 60 3 3 17 23 30 45 22 37 45 62 95 104 11 9 36 36 55 60
28 36 101 111 216 219 56 53 160 257 210 412 3 8 5 16 4 18 -1 2 6 14 14 28 9
13 14 24 12 24 -3 0 6 21 20 48 22 40 70 156 78 187 2 6 6 17 9 25 23 61 71
251 86 340 19 115 21 125 30 150 5 14 15 54 21 89 6 35 22 80 34 100 41 65 48
105 32 196 -7 39 -12 120 -11 180 0 61 -5 139 -12 175 -8 36 -16 85 -19 110
-3 25 -10 53 -15 62 -5 10 -8 18 -5 18 3 0 -1 21 -9 48 -7 26 -16 72 -19 102
-6 58 -14 93 -40 175 -8 27 -14 51 -12 53 9 8 -45 147 -74 191 -16 26 -40 76
-54 111 -13 36 -44 108 -69 160 -38 82 -55 106 -123 170 -44 42 -99 100 -124
130 -24 30 -54 63 -65 73 -11 10 -32 29 -47 43 -55 48 -258 165 -337 194 -78
28 -216 61 -311 75 -24 4 -47 8 -50 10 -3 2 -27 6 -54 9 -26 3 -51 8 -54 10
-4 2 -31 7 -61 10 -29 4 -58 9 -64 13 -9 6 -343 13 -349 7z m-1628 -4396 c0
-13 -7 -32 -15 -42 -8 -11 -15 -16 -15 -11 0 5 -5 4 -12 -3 -7 -7 -18 -12 -25
-12 -18 0 -37 50 -24 63 8 8 53 22 84 26 4 1 7 -9 7 -21z m20 -132 c0 -2 -7
-6 -15 -10 -8 -3 -15 -1 -15 4 0 6 7 10 15 10 8 0 15 -2 15 -4z"/>
<path d="M3426 4325 c-14 -6 -35 -20 -45 -32 -11 -12 -30 -28 -41 -36 -14 -9
-24 -30 -27 -54 l-5 -38 104 -53 c58 -28 110 -52 116 -52 6 0 24 -17 39 -37
15 -21 36 -47 46 -57 9 -11 17 -24 17 -28 0 -5 4 -7 9 -4 15 9 112 -110 126
-154 4 -14 23 -53 41 -87 19 -35 34 -64 33 -65 0 -2 7 -29 16 -61 31 -106 117
-157 185 -110 72 51 87 86 55 129 -8 10 -15 25 -15 32 0 14 29 47 41 47 20 0
50 37 44 53 -4 9 -8 24 -10 32 -7 34 -26 72 -46 93 -26 27 -59 91 -59 113 0 9
-26 41 -59 72 -32 32 -61 69 -65 84 -10 43 -78 102 -148 131 -229 92 -290 107
-352 82z"/>
<path d="M2617 4234 c-1 -1 -33 -5 -72 -8 -137 -13 -180 -21 -259 -47 -153
-52 -305 -148 -408 -257 -26 -27 -54 -44 -95 -57 -114 -35 -182 -79 -308 -203
-66 -65 -126 -126 -134 -136 -26 -34 -88 -141 -96 -165 -4 -13 -13 -38 -20
-55 -7 -17 -13 -34 -14 -39 0 -4 -7 -20 -15 -36 -19 -35 -56 -171 -63 -231 -8
-63 -8 -163 1 -240 10 -93 37 -175 105 -324 l17 -39 -34 -36 c-20 -20 -45 -57
-57 -84 -21 -44 -22 -53 -11 -110 20 -107 84 -198 171 -243 30 -15 82 -15 143
1 51 13 52 12 57 -8 3 -12 9 -40 14 -62 15 -65 67 -226 89 -275 42 -95 270
-270 372 -287 14 -2 45 -14 70 -25 47 -22 50 -23 90 -33 32 -8 58 -12 91 -14
32 -1 36 -9 44 -98 l7 -70 -46 -31 c-69 -47 -133 -71 -212 -81 -38 -5 -104
-23 -144 -40 -41 -17 -81 -31 -90 -31 -37 0 -114 -63 -165 -134 -11 -16 -25
-33 -30 -40 -30 -33 -47 -116 -24 -116 7 0 8 -14 3 -43 -11 -63 -6 -96 23
-155 32 -65 62 -81 143 -76 79 5 137 13 164 24 28 10 36 5 36 -25 0 -47 65
-55 159 -21 37 14 50 14 80 4 57 -20 100 -16 188 14 91 31 129 34 157 13 42
-32 144 -11 227 46 18 12 29 15 36 8 19 -19 122 -21 182 -3 31 10 65 19 76 21
10 2 22 7 25 11 19 25 80 55 132 64 71 12 173 60 242 113 27 20 58 38 70 41
46 9 52 56 20 143 -37 98 -96 156 -172 171 -28 5 -70 18 -94 29 -24 10 -68 22
-98 26 -88 10 -111 14 -121 21 -6 3 -16 1 -24 -6 -10 -9 -19 -8 -36 1 -61 32
-67 51 -73 210 -5 115 -12 104 124 179 52 29 115 67 140 85 25 17 70 48 100
69 114 78 265 262 310 376 7 19 17 40 21 45 4 6 11 26 14 45 6 36 32 73 45 65
13 -8 91 23 143 57 66 43 136 135 143 190 5 46 7 42 -76 163 -37 53 -40 62
-29 80 80 124 117 270 117 455 -1 138 -12 189 -73 318 -19 40 -35 75 -35 78 0
2 -11 22 -25 44 -14 22 -22 40 -18 40 4 0 2 5 -5 12 -7 7 -12 19 -12 27 0 28
-73 166 -119 226 -25 33 -66 78 -90 100 -23 22 -65 61 -91 87 -28 28 -69 55
-98 66 -28 11 -68 34 -89 51 -21 17 -41 31 -45 31 -4 0 -39 15 -78 34 -99 49
-191 75 -315 92 -38 5 -273 12 -278 8z"/>
</g>
</svg>
